<svg xmlns="http://www.w3.org/2000/svg">
    <symbol id="logo-icon">
        <path d="M0 0H1V14H15V15H0V0ZM2 2H5V3H2V2ZM3 5H8V6H3V5ZM5 8H8V9H5V8ZM8 11H15V12H8V11Z" />
    </symbol>

  <symbol id="info-icon">
    <path fill-rule="evenodd" clip-rule="evenodd"
      d="M11 18H13V16H11V18ZM12 2C6.48 2 2 6.48 2 12C2 17.52 6.48 22 12 22C17.52 22 22 17.52 22 12C22 6.48 17.52 2 12 2ZM12 20C7.59 20 4 16.41 4 12C4 7.59 7.59 4 12 4C16.41 4 20 7.59 20 12C20 16.41 16.41 20 12 20ZM12 6C9.79 6 8 7.79 8 10H10C10 8.9 10.9 8 12 8C13.1 8 14 8.9 14 10C14 12 11 11.75 11 15H13C13 12.75 16 12.5 16 10C16 7.79 14.21 6 12 6Z"
      fill="#0079B5" />
  </symbol>

  <symbol id="error-icon">
        <path d="M8 15A7 7 0 1 1 8 1a7 7 0 0 1 0 14zm0 1A8 8 0 1 0 8 0a8 8 0 0 0 0 16z M7.002 11a1 1 0 1 1 2 0 1 1 0 0 1-2 0z
              M7.1 4.995a.905.905 0 1 1 1.8 0l-.35 3.507a.552.552 0 0 1-1.1 0L7.1 4.995z" />
    </symbol>

    <symbol id="success-icon">
        <path d="M8 15A7 7 0 1 1 8 1a7 7 0 0 1 0 14zm0 1A8 8 0 1 0 8 0a8 8 0 0 0 0 16z M10.97 4.97a.235.235 0 0 0-.02.022L7.477
              9.417 5.384 7.323a.75.75 0 0 0-1.06 1.06L6.97 11.03a.75.75 0 0 0 1.079-.02l3.992-4.99a.75.75 0 0 0-1.071-1.05z" />
    </symbol>

    <symbol id="close-icon">
        <path d="M14.348 14.849a1.2 1.2 0 0 1-1.697 0L10 11.819l-2.651 3.029a1.2 1.2 0 1 1-1.697-1.697l2.758-3.15-2.759-3.152a1.2
        1.2 0 1 1 1.697-1.697L10 8.183l2.651-3.031a1.2 1.2 0 1 1 1.697 1.697l-2.758 3.152 2.758 3.15a1.2 1.2 0 0 1 0 1.698z" />
    </symbol>

    <symbol id="eye-icon">
        <path d="M572.52 241.4C518.29 135.59 410.93 64 288 64S57.68 135.64 3.48 241.41a32.35 32.35 0 0 0 0 29.19C57.71 376.41 165.07 448 288
              448s230.32-71.64 284.52-177.41a32.35 32.35 0 0 0 0-29.19zM288 400a144 144 0 1 1 144-144 143.93 143.93 0 0 1-144 144zm0-240a95.31
              95.31 0 0 0-25.31 3.79 47.85 47.85 0 0 1-66.9 66.9A95.78 95.78 0 1 0 288 160zz" />
    </symbol>

    <symbol id="crossed-out-eye-icon">
        <path d="M320 400c-75.85 0-137.25-58.71-142.9-133.11L72.2 185.82c-13.79 17.3-26.48 35.59-36.72 55.59a32.35 32.35 0 0 0 0 29.19C89.71
              376.41 197.07 448 320 448c26.91 0 52.87-4 77.89-10.46L346 397.39a144.13 144.13 0 0 1-26 2.61zm313.82 58.1l-110.55-85.44a331.25
              331.25 0 0 0 81.25-102.07 32.35 32.35 0 0 0 0-29.19C550.29 135.59 442.93 64 320 64a308.15 308.15 0 0 0-147.32 37.7L45.46 3.37A16
              16 0 0 0 23 6.18L3.37 31.45A16 16 0 0 0 6.18 53.9l588.36 454.73a16 16 0 0 0 22.46-2.81l19.64-25.27a16 16 0 0
              0-2.82-22.45zm-183.72-142l-39.3-30.38A94.75 94.75 0 0 0 416 256a94.76 94.76 0 0 0-121.31-92.21A47.65 47.65 0 0 1 304
              192a46.64 46.64 0 0 1-1.54 10l-73.61-56.89A142.31 142.31 0 0 1 320 112a143.92 143.92 0 0 1 144 144c0 21.63-5.29 41.79-13.9 60.11z" />
    </symbol>

    <symbol id="account-icon">
    <path clip-rule="evenodd"
      d="M12 2C6.48 2 2 6.48 2 12C2 17.52 6.48 22 12 22C17.52 22 22 17.52 22 12C22 6.48 17.52 2 12 2ZM12 5C13.66 5 15 6.34
        15 8C15 9.66 13.66 11 12 11C10.34 11 9 9.66 9 8C9 6.34 10.34 5 12 5ZM12 19.2C9.5 19.2 7.29 17.92 6 15.98C6.03 13.99 10 12.9 12 12.9C13.99 12.9
        17.97 13.99 18 15.98C16.71 17.92 14.5 19.2 12 19.2Z" />
    </symbol>

    <symbol id="menu-down-icon">
      <path clip-rule="evenodd" d="M7 10L12 15L17 10H7Z" />
    </symbol>

    <symbol id="app-logo">
    <path
      d="M0.999999 30L0.999999 1.26343L6.22483 1.26343L6.22483 30H0.999999Z M17.9807 30V1.26343H19.2869L19.2869 30H17.9807Z M6.22483 1.26332L31.0428
        1.26332L31.0428 3.87573L6.22483 3.87573L6.22483 1.26332Z M10.1435 9.75375C10.1435 8.67165 10.9476 7.79443 11.9395 7.79443L22.7157 7.79443C23.7076
        7.79443 24.5117 8.67165 24.5117 9.75375C24.5117 10.8358 23.7076 11.7131 22.7157 11.7131L11.9395 11.7131C10.9476 11.7131 10.1435 10.8358 10.1435 9.75375Z
        M15.3683 17.5911C15.3683 16.509 16.2455 15.6318 17.3276 15.6318L29.0835 15.6318C30.1656 15.6318 31.0428 16.509 31.0428 17.5911C31.0428 18.6732 30.1656
        19.5505 29.0835 19.5505L17.3276 19.5505C16.2455 19.5505 15.3683 18.6732 15.3683 17.5911Z M12.7559 24.1222C12.7559 23.0401 13.56 22.1628 14.5519 22.1628L25.3281
        22.1628C26.32 22.1628 27.1242 23.0401 27.1242 24.1222C27.1242 25.2043 26.32 26.0815 25.3281 26.0815L14.5519 26.0815C13.56 26.0815 12.7559 25.2043 12.7559 24.1222Z" />
    </symbol>

    <symbol id="pencil-icon">
    <path clip-rule="evenodd"
      d="M20.71 7.04006C21.1 6.65006 21.1 6.00006 20.71 5.63006L18.37 3.29006C18 2.90006 17.35 2.90006 16.96 3.29006L15.12 5.12006L18.87
        8.87006L20.71 7.04006ZM3 17.2501V21.0001H6.75L17.81 9.93006L14.06 6.18006L3 17.2501Z" />
    </symbol>
</svg>
